<svg width="25" height="24" viewBox="0 0 25 24" fill="none" xmlns="http://www.w3.org/2000/svg">
<g opacity="0.4" clip-path="url(#clip0_36_318)">
<path d="M3.46577 12.1328C3.46575 12.6851 3.91347 13.1329 4.46577 13.1329H5.52826C6.08053 13.1329 6.52824 12.6852 6.52826 12.1329L6.52827 11.9631C6.52829 11.4108 6.08057 10.963 5.52827 10.963H4.46577C3.9135 10.963 3.46579 11.4107 3.46577 11.963L3.46577 12.1328ZM3.46581 17.1301C3.46581 17.6824 3.91352 18.1301 4.46581 18.1301H5.52831C6.08059 18.1301 6.52831 17.6824 6.52831 17.1301V16.8507C6.52831 16.2984 6.08059 15.8507 5.52831 15.8507H4.46581C3.91352 15.8507 3.46581 16.2984 3.46581 16.8507V17.1301ZM3.46581 7.06987C3.46581 7.62215 3.91352 8.06987 4.46581 8.06987H5.52831C6.08059 8.06987 6.52831 7.62215 6.52831 7.06987V6.98767C6.52831 6.43539 6.08059 5.98767 5.52831 5.98767H4.46581C3.91352 5.98767 3.46581 6.43539 3.46581 6.98767V7.06987ZM8.05854 12.1328C8.05852 12.6851 8.50624 13.1329 9.05854 13.1329H20.0585C20.6108 13.1329 21.0585 12.6852 21.0585 12.1329L21.0585 11.9631C21.0586 11.4108 20.6108 10.963 20.0585 10.963H9.05855C8.50628 10.963 8.05857 11.4107 8.05855 11.963L8.05854 12.1328ZM8.05858 17.1301C8.05858 17.6824 8.5063 18.1301 9.05858 18.1301H20.0586C20.6109 18.1301 21.0586 17.6824 21.0586 17.1301L21.0586 16.8507C21.0586 16.2984 20.6109 15.8507 20.0586 15.8507H9.05858C8.5063 15.8507 8.05858 16.2984 8.05858 16.8507V17.1301ZM9.05858 5.98767C8.5063 5.98767 8.05858 6.43539 8.05858 6.98767L8.05858 7.06987C8.05858 7.62215 8.5063 8.06987 9.05858 8.06987H20.0586C20.6109 8.06987 21.0586 7.62216 21.0586 7.06987L21.0586 6.98767C21.0586 6.43539 20.6109 5.98767 20.0586 5.98767H9.05858Z" fill="white"/>
</g>
<defs>
<clipPath id="clip0_36_318">
<rect width="24" height="24" fill="white" transform="translate(0.0585938)"/>
</clipPath>
</defs>
</svg>
