<svg width="19" height="20" viewBox="0 0 19 20" fill="none" xmlns="http://www.w3.org/2000/svg">
<path fill-rule="evenodd" clip-rule="evenodd" d="M16.7128 16.3587L12.6601 12.306C13.3773 11.3564 13.8026 10.174 13.8026 8.89223C13.8026 5.76077 11.2641 3.22223 8.13262 3.22223C5.00116 3.22223 2.46262 5.76077 2.46262 8.89223C2.46262 12.0237 5.00116 14.5622 8.13262 14.5622C9.41437 14.5622 10.5968 14.1369 11.5464 13.4197L15.5991 17.4724L16.7128 16.3587ZM12.2275 8.89223C12.2275 11.1538 10.3942 12.9872 8.13255 12.9872C5.87094 12.9872 4.03755 11.1538 4.03755 8.89223C4.03755 6.63063 5.87094 4.79724 8.13255 4.79724C10.3942 4.79724 12.2275 6.63063 12.2275 8.89223Z" fill="#202C43"/>
</svg>
